<?xml version="1.0" encoding="UTF-8"?>
<svg id="Layer_1" xmlns="http://www.w3.org/2000/svg" version="1.1" viewBox="0 0 432 112">
  <!-- Generator: Adobe Illustrator 29.2.1, SVG Export Plug-In . SVG Version: 2.1.0 Build 116)  -->
  <defs>
    <style>
      .st0 {
        fill: #fff;
      }
    </style>
  </defs>
  <path class="st0" d="M26,17.8l-.4,7.3c2.2-3,4.7-5.2,7.4-6.6,2.7-1.5,5.7-2.2,8.8-2.2s7.3,1,10.1,3.1,4.6,4.5,5.3,7.3,1.1,7.4,1.1,14v34.8c0,7.5-.5,12.9-1.3,16s-2.7,5.7-5.5,7.6-6.1,2.8-10,2.8-6-.7-8.7-2.2c-2.7-1.5-5.1-3.6-7.3-6.5v18.9H.4V17.8h25.6ZM33.2,41.8c0-5.1-.2-8.2-.6-9.3-.4-1.1-1.4-1.6-3.1-1.6s-2.7.6-3.2,1.9-.7,4.3-.7,9v34.3c0,5,.2,8.1.8,9.3.5,1.2,1.6,1.9,3.2,1.9s2.6-.6,3-1.7.6-3.9.6-8.3c0,0,0-35.4,0-35.4Z"/>
  <path class="st0" d="M92.5-.4v100.8h-25.9V-.4s25.9,0,25.9,0Z"/>
  <path class="st0" d="M124,49.8h-23.6v-5.5c0-6.4.7-11.3,2.2-14.8,1.5-3.5,4.4-6.5,8.9-9.2,4.4-2.7,10.2-4,17.3-4s14.9,1.5,19.2,4.5,6.9,6.7,7.8,11.1c.9,4.4,1.3,13.4,1.3,27.1v41.5h-24.5v-7.4c-1.5,2.9-3.5,5.2-5.9,6.7-2.4,1.5-5.3,2.2-8.7,2.2s-8.4-1.2-12.1-3.7-5.5-7.9-5.5-16.2v-6.8c0-6.2,1-10.4,2.9-12.7,1.9-2.2,6.8-4.9,14.5-7.8,8.3-3.2,12.7-5.4,13.3-6.5.6-1.1.9-3.4.9-6.8s-.3-7.1-1-8.4c-.6-1.3-1.7-2-3.2-2s-2.8.5-3.2,1.7c-.4,1.1-.6,4-.6,8.6v8.7h0ZM132,61.1c-4,2.9-6.4,5.4-7,7.4-.6,2-1,4.9-1,8.6s.3,7,.8,8.3c.6,1.2,1.7,1.9,3.3,1.9s2.6-.5,3.1-1.5c.5-1,.7-3.5.7-7.7v-17h0Z"/>
  <path class="st0" d="M218.5,17.8l-7.2,59.8c-1.1,9.5-2.1,15.9-2.9,19.4-.8,3.4-2.1,6.3-3.8,8.5-1.8,2.2-4.3,3.9-7.4,4.9-3.2,1.1-8.2,1.6-15.2,1.6h-15.3v-13.2c3.9,0,6.4-.2,7.6-.6,1.1-.4,1.7-1.3,1.7-2.7s-.5-3.6-1.6-8.7l-13.8-69.1h22.9l8.3,55.8,4-55.8h22.8,0Z"/>
  <path class="st0" d="M248.9-.4v100.8h-25.9V-.4h25.9Z"/>
  <path class="st0" d="M283.9-.4v13.1h-25.9V-.4h25.9ZM283.9,17.8v82.7h-25.9V17.8h25.9Z"/>
  <path class="st0" d="M344.3,44.2h-22.3v-4.5c0-3.8-.2-6.2-.6-7.3-.4-1-1.5-1.5-3.3-1.5s-2.5.5-3.2,1.4-1.1,2.3-1.1,4.2.2,4.4.5,5.6,1.4,2.5,3.2,3.9c1.8,1.4,5.4,3.5,10.9,6.2,7.3,3.6,12.1,6.9,14.4,10.1,2.3,3.2,3.4,7.7,3.4,13.8s-.9,11.8-2.6,15.2c-1.7,3.4-4.7,6.1-8.8,7.9-4.1,1.8-9,2.8-14.8,2.8s-11.9-1-16.4-3c-4.5-2-7.7-4.7-9.4-8.1-1.7-3.4-2.5-8.6-2.5-15.4v-4h22.3v5.2c0,4.4.3,7.3.8,8.7.6,1.3,1.7,2,3.3,2s3-.4,3.7-1.3,1.1-2.8,1.1-5.6-.5-6.4-1.4-7.4c-1-1-5.8-3.9-14.6-8.8-7.4-4.2-11.9-7.9-13.5-11.3-1.6-3.4-2.4-7.4-2.4-12,0-6.6.9-11.5,2.6-14.6,1.7-3.1,4.7-5.5,8.9-7.3,4.2-1.7,9-2.5,14.5-2.5s10.1.7,14,2.1,6.8,3.2,8.9,5.5,3.3,4.4,3.7,6.4c.4,1.9.6,5,.6,9.2v4.8h0Z"/>
  <path class="st0" d="M379.5,6.8v13h6.8v13.1h-6.8v44.2c0,5.4.3,8.5.8,9.1.6.6,2.9.9,7,.9v13.3h-10.1c-5.7,0-9.8-.2-12.3-.7-2.5-.5-4.6-1.6-6.5-3.3-1.9-1.7-3-3.7-3.5-5.9s-.7-7.4-.7-15.7v-42h-5.4v-13.1h5.4V6.8h25.2,0Z"/>
  <path class="st0" d="M417,17.8l-1,10.9c3.6-7.8,9-11.9,15.9-12.4v29.1c-4.6,0-8,.6-10.1,1.9-2.2,1.2-3.5,3-4,5.2s-.8,7.3-.8,15.3v32.6h-25.2V17.8h25.2Z"/>
</svg>